<svg xmlns="http://www.w3.org/2000/svg" xmlns:xlink="http://www.w3.org/1999/xlink" width="500" zoomAndPan="magnify" viewBox="0 0 375 374.999991" height="500" preserveAspectRatio="xMidYMid meet" version="1.0"><defs><g><g id="id1"/><g id="id2"/></g></defs><path fill="rgb(92.158508%, 0%, 0%)" d="M 97.835938 167.71875 C 97.835938 189.253906 80.375 206.714844 58.835938 206.714844 C 37.296875 206.714844 19.835938 189.253906 19.835938 167.71875 C 19.835938 146.175781 37.296875 128.714844 58.835938 128.714844 C 80.375 128.714844 97.835938 146.175781 97.835938 167.71875 " fill-opacity="1" fill-rule="nonzero"/><g fill="rgb(100%, 100%, 100%)" fill-opacity="1"><g transform="translate(36.755371, 200.467369)"><g><path d="M 25.171875 0 L 6.859375 0 L 6.859375 -61.6875 L 23.40625 -61.6875 C 30.039062 -61.6875 35.101562 -59.867188 38.59375 -56.234375 C 42.082031 -52.597656 43.828125 -47.757812 43.828125 -41.71875 L 43.828125 -17.59375 C 43.828125 -5.863281 37.609375 0 25.171875 0 Z M 34.140625 -16.71875 L 34.140625 -42.59375 C 34.140625 -45.820312 33.332031 -48.179688 31.71875 -49.671875 C 30.101562 -51.171875 27.625 -51.921875 24.28125 -51.921875 L 16.546875 -51.921875 L 16.546875 -8.890625 L 23.765625 -8.890625 C 25.222656 -8.890625 26.453125 -8.960938 27.453125 -9.109375 C 28.453125 -9.253906 29.523438 -9.5625 30.671875 -10.03125 C 31.816406 -10.5 32.679688 -11.289062 33.265625 -12.40625 C 33.847656 -13.519531 34.140625 -14.957031 34.140625 -16.71875 Z M 34.140625 -16.71875 "/></g></g></g><g fill="rgb(0%, 0%, 0%)" fill-opacity="1"><g transform="translate(110.691165, 191.507547)"><g><path d="M 5.09375 -10.265625 L 5.09375 -22.625 C 5.09375 -27.195312 6.945312 -30.332031 10.65625 -32.03125 C 11.96875 -32.644531 13.425781 -33.035156 15.03125 -33.203125 C 15.90625 -33.296875 16.710938 -33.34375 17.453125 -33.34375 C 18.109375 -33.34375 18.695312 -33.296875 19.21875 -33.203125 C 20.351562 -33.078125 21.3125 -32.863281 22.09375 -32.5625 L 22.09375 -45.765625 L 29.21875 -45.765625 L 29.21875 0 C 25.46875 0.519531 22.003906 0.78125 18.828125 0.78125 C 15.648438 0.78125 12.773438 0.128906 10.203125 -1.171875 C 6.796875 -2.921875 5.09375 -5.953125 5.09375 -10.265625 Z M 22.09375 -6.34375 L 22.09375 -24.96875 C 21.050781 -25.488281 19.960938 -25.816406 18.828125 -25.953125 C 18.484375 -25.992188 18.132812 -26.015625 17.78125 -26.015625 C 17.039062 -26.015625 16.320312 -25.925781 15.625 -25.75 C 14.625 -25.445312 13.804688 -24.804688 13.171875 -23.828125 C 12.535156 -22.847656 12.21875 -21.570312 12.21875 -20 L 12.21875 -9.8125 C 12.21875 -8.320312 13.222656 -7.207031 15.234375 -6.46875 C 16.273438 -6.082031 17.429688 -5.890625 18.703125 -5.890625 C 19.742188 -5.890625 20.875 -6.039062 22.09375 -6.34375 Z M 22.09375 -6.34375 "/></g></g></g><g fill="rgb(0%, 0%, 0%)" fill-opacity="1"><g transform="translate(141.153992, 191.507547)"><g><path d="M 9.015625 -38.703125 C 7.972656 -38.703125 7.054688 -39.09375 6.265625 -39.875 C 5.484375 -40.664062 5.09375 -41.582031 5.09375 -42.625 C 5.09375 -43.625 5.484375 -44.503906 6.265625 -45.265625 C 7.054688 -46.035156 7.972656 -46.421875 9.015625 -46.421875 C 10.023438 -46.421875 10.910156 -46.035156 11.671875 -45.265625 C 12.429688 -44.503906 12.8125 -43.625 12.8125 -42.625 C 12.8125 -41.582031 12.429688 -40.664062 11.671875 -39.875 C 10.910156 -39.09375 10.023438 -38.703125 9.015625 -38.703125 Z M 12.421875 0 L 5.234375 0 L 5.234375 -32.75 L 12.421875 -32.75 Z M 12.421875 0 "/></g></g></g><g fill="rgb(0%, 0%, 0%)" fill-opacity="1"><g transform="translate(157.888945, 191.507547)"><g><path d="M 2.359375 -8.296875 L 9.546875 -9.015625 C 9.546875 -8.234375 9.945312 -7.492188 10.75 -6.796875 C 11.5625 -6.097656 12.796875 -5.75 14.453125 -5.75 C 15.890625 -5.75 17 -6.109375 17.78125 -6.828125 C 18.5625 -7.546875 18.953125 -8.382812 18.953125 -9.34375 C 18.953125 -10.613281 18.441406 -11.628906 17.421875 -12.390625 C 16.398438 -13.148438 15.144531 -13.757812 13.65625 -14.21875 C 12.175781 -14.675781 10.6875 -15.195312 9.1875 -15.78125 C 7.6875 -16.375 6.359375 -17.34375 5.203125 -18.6875 C 4.046875 -20.039062 3.359375 -21.765625 3.140625 -23.859375 C 3.097656 -24.117188 3.078125 -24.378906 3.078125 -24.640625 C 3.078125 -26.773438 3.925781 -28.738281 5.625 -30.53125 C 7.457031 -32.53125 10.351562 -33.53125 14.3125 -33.53125 C 15.707031 -33.53125 17.015625 -33.367188 18.234375 -33.046875 C 19.453125 -32.722656 20.328125 -32.40625 20.859375 -32.09375 L 21.640625 -31.640625 L 19.546875 -24.96875 C 18.546875 -25.976562 16.800781 -26.484375 14.3125 -26.484375 C 13.09375 -26.484375 12.1875 -26.304688 11.59375 -25.953125 C 11.007812 -25.609375 10.75 -25.226562 10.8125 -24.8125 C 10.882812 -24.394531 10.921875 -24.035156 10.921875 -23.734375 C 11.046875 -23.078125 11.6875 -22.472656 12.84375 -21.921875 C 14 -21.378906 15.316406 -20.847656 16.796875 -20.328125 C 18.285156 -19.804688 19.769531 -19.148438 21.25 -18.359375 C 22.726562 -17.578125 23.976562 -16.398438 25 -14.828125 C 26.03125 -13.265625 26.546875 -11.394531 26.546875 -9.21875 C 26.546875 -6.382812 25.519531 -3.972656 23.46875 -1.984375 C 21.414062 -0.00390625 18.410156 0.984375 14.453125 0.984375 C 10.742188 0.984375 7.820312 0.09375 5.6875 -1.6875 C 3.550781 -3.476562 2.441406 -5.679688 2.359375 -8.296875 Z M 2.359375 -8.296875 "/></g></g></g><g fill="rgb(0%, 0%, 0%)" fill-opacity="1"><g transform="translate(184.756384, 191.507547)"><g><path d="M 31.125 0 L 22.09375 0 L 12.296875 -16.609375 L 11.375 -15.6875 L 11.375 0 L 4.1875 0 L 4.1875 -45.765625 L 11.375 -45.765625 L 11.375 -24.96875 L 21.109375 -34 L 26.40625 -28.96875 L 17.84375 -21.703125 C 24.207031 -11.203125 28.632812 -3.96875 31.125 0 Z M 31.125 0 "/></g></g></g><g fill="rgb(0%, 0%, 0%)" fill-opacity="1"><g transform="translate(214.4347, 191.507547)"><g><path d="M 18.171875 0 L 11.25 0 L 0.78125 -32.75 L 8.625 -32.75 L 14.703125 -12.75 L 20.65625 -32.75 L 28.4375 -32.75 Z M 18.171875 0 "/></g></g></g><g fill="rgb(0%, 0%, 0%)" fill-opacity="1"><g transform="translate(242.740245, 191.507547)"><g><path d="M 25.828125 -12.421875 L 9.546875 -11.578125 L 9.546875 -9.734375 C 9.546875 -7.515625 10.546875 -6.253906 12.546875 -5.953125 C 12.859375 -5.910156 13.164062 -5.890625 13.46875 -5.890625 C 15.425781 -5.890625 18.128906 -6.757812 21.578125 -8.5 L 24.1875 -2.28125 C 20.957031 -0.320312 17.363281 0.695312 13.40625 0.78125 C 13.226562 0.78125 13.050781 0.78125 12.875 0.78125 C 9.738281 0.78125 7.210938 0.0390625 5.296875 -1.4375 C 3.285156 -3.050781 2.28125 -5.492188 2.28125 -8.765625 L 2.28125 -22.15625 C 2.28125 -25.6875 3.378906 -28.429688 5.578125 -30.390625 C 7.785156 -32.359375 10.695312 -33.34375 14.3125 -33.34375 C 17.9375 -33.34375 20.757812 -32.367188 22.78125 -30.421875 C 24.8125 -28.484375 25.828125 -25.796875 25.828125 -22.359375 Z M 18.5625 -18.765625 L 18.5625 -22.234375 C 18.5625 -23.535156 18.144531 -24.535156 17.3125 -25.234375 C 16.488281 -25.929688 15.46875 -26.28125 14.25 -26.28125 C 12.59375 -26.28125 11.394531 -25.84375 10.65625 -24.96875 C 9.914062 -24.101562 9.546875 -23.144531 9.546875 -22.09375 L 9.546875 -18.171875 Z M 18.5625 -18.765625 "/></g></g></g><g fill="rgb(0%, 0%, 0%)" fill-opacity="1"><g transform="translate(269.803771, 191.507547)"><g><path d="M 11.171875 0 L 3.984375 0 L 3.984375 -32.75 L 10.65625 -32.75 L 11.171875 -32.484375 C 12.617188 -32.960938 14.082031 -33.226562 15.5625 -33.28125 C 16.039062 -33.28125 16.472656 -33.28125 16.859375 -33.28125 C 17.691406 -33.28125 18.304688 -33.253906 18.703125 -33.203125 C 19.304688 -33.117188 20.503906 -32.878906 22.296875 -32.484375 L 20.59375 -25.5 C 19.375 -26.101562 18.195312 -26.40625 17.0625 -26.40625 C 16.101562 -26.40625 15.164062 -26.210938 14.25 -25.828125 C 12.195312 -24.910156 11.171875 -23.316406 11.171875 -21.046875 Z M 11.171875 0 "/></g></g></g><g fill="rgb(0%, 0%, 0%)" fill-opacity="1"><g transform="translate(293.337232, 191.507547)"><g><path d="M 2.359375 -8.296875 L 9.546875 -9.015625 C 9.546875 -8.234375 9.945312 -7.492188 10.75 -6.796875 C 11.5625 -6.097656 12.796875 -5.75 14.453125 -5.75 C 15.890625 -5.75 17 -6.109375 17.78125 -6.828125 C 18.5625 -7.546875 18.953125 -8.382812 18.953125 -9.34375 C 18.953125 -10.613281 18.441406 -11.628906 17.421875 -12.390625 C 16.398438 -13.148438 15.144531 -13.757812 13.65625 -14.21875 C 12.175781 -14.675781 10.6875 -15.195312 9.1875 -15.78125 C 7.6875 -16.375 6.359375 -17.34375 5.203125 -18.6875 C 4.046875 -20.039062 3.359375 -21.765625 3.140625 -23.859375 C 3.097656 -24.117188 3.078125 -24.378906 3.078125 -24.640625 C 3.078125 -26.773438 3.925781 -28.738281 5.625 -30.53125 C 7.457031 -32.53125 10.351562 -33.53125 14.3125 -33.53125 C 15.707031 -33.53125 17.015625 -33.367188 18.234375 -33.046875 C 19.453125 -32.722656 20.328125 -32.40625 20.859375 -32.09375 L 21.640625 -31.640625 L 19.546875 -24.96875 C 18.546875 -25.976562 16.800781 -26.484375 14.3125 -26.484375 C 13.09375 -26.484375 12.1875 -26.304688 11.59375 -25.953125 C 11.007812 -25.609375 10.75 -25.226562 10.8125 -24.8125 C 10.882812 -24.394531 10.921875 -24.035156 10.921875 -23.734375 C 11.046875 -23.078125 11.6875 -22.472656 12.84375 -21.921875 C 14 -21.378906 15.316406 -20.847656 16.796875 -20.328125 C 18.285156 -19.804688 19.769531 -19.148438 21.25 -18.359375 C 22.726562 -17.578125 23.976562 -16.398438 25 -14.828125 C 26.03125 -13.265625 26.546875 -11.394531 26.546875 -9.21875 C 26.546875 -6.382812 25.519531 -3.972656 23.46875 -1.984375 C 21.414062 -0.00390625 18.410156 0.984375 14.453125 0.984375 C 10.742188 0.984375 7.820312 0.09375 5.6875 -1.6875 C 3.550781 -3.476562 2.441406 -5.679688 2.359375 -8.296875 Z M 2.359375 -8.296875 "/></g></g></g><g fill="rgb(0%, 0%, 0%)" fill-opacity="1"><g transform="translate(320.204682, 191.507547)"><g><path d="M 25.828125 -12.421875 L 9.546875 -11.578125 L 9.546875 -9.734375 C 9.546875 -7.515625 10.546875 -6.253906 12.546875 -5.953125 C 12.859375 -5.910156 13.164062 -5.890625 13.46875 -5.890625 C 15.425781 -5.890625 18.128906 -6.757812 21.578125 -8.5 L 24.1875 -2.28125 C 20.957031 -0.320312 17.363281 0.695312 13.40625 0.78125 C 13.226562 0.78125 13.050781 0.78125 12.875 0.78125 C 9.738281 0.78125 7.210938 0.0390625 5.296875 -1.4375 C 3.285156 -3.050781 2.28125 -5.492188 2.28125 -8.765625 L 2.28125 -22.15625 C 2.28125 -25.6875 3.378906 -28.429688 5.578125 -30.390625 C 7.785156 -32.359375 10.695312 -33.34375 14.3125 -33.34375 C 17.9375 -33.34375 20.757812 -32.367188 22.78125 -30.421875 C 24.8125 -28.484375 25.828125 -25.796875 25.828125 -22.359375 Z M 18.5625 -18.765625 L 18.5625 -22.234375 C 18.5625 -23.535156 18.144531 -24.535156 17.3125 -25.234375 C 16.488281 -25.929688 15.46875 -26.28125 14.25 -26.28125 C 12.59375 -26.28125 11.394531 -25.84375 10.65625 -24.96875 C 9.914062 -24.101562 9.546875 -23.144531 9.546875 -22.09375 L 9.546875 -18.171875 Z M 18.5625 -18.765625 "/></g></g></g></svg>